<?xml version="1.0" encoding="utf-8"?>
<!-- Generator: Adobe Illustrator 21.0.0, SVG Export Plug-In . SVG Version: 6.00 Build 0)  -->
<svg version="1.1" id="Слой_1" xmlns="http://www.w3.org/2000/svg" xmlns:xlink="http://www.w3.org/1999/xlink" x="0px" y="0px"
	 viewBox="0 0 93 93" style="enable-background:new 0 0 93 93;" xml:space="preserve">
<style type="text/css">
	.st0{fill:#3B4453;}
</style>
<path d="M86.54,34.648c-5.458-9.985-15.003-16.773-23.993-19.003c-1.037-0.257-2.068-0.469-3.083-0.602
	c-1.452-0.191-2.901-0.269-4.323-0.268c-0.648,0-1.064-0.69-0.772-1.269c1.588-3.151,4.736-9.885,6.008-12.05
	c0.15-0.255-0.415-0.473-1.486-0.615c-3.408-0.455-11.996-0.146-19.467,2.188c-7.939,2.479-16.573,5.858-24.611,15.679
	C6.774,28.528,4.313,41.579,6.801,51.161c0.835,3.216,2.189,6.209,3.633,8.825c2.293,4.154,4.812,7.349,5.841,8.918
	c-0.794,0.094-12.482,5.024-15.323,5.988c-0.337,0.115,0.142,0.863,1.215,1.965c2.653,2.724,8.955,7.62,15.673,10.536
	c7.629,3.31,16.374,6.395,28.876,4.213c3.74-0.653,7.286-1.86,10.543-3.456c7.632-3.739,13.659-9.654,16.727-15.877
	c0.283-0.574,0.487-1.672,0.64-1.486c1.14,1.376,4.573,5.26,7.331,8.445c1.542,1.78,2.876,3.345,3.474,4.125
	c0.753,0.981,5.563-9.759,6.405-20.012C92.519,55.056,92.627,45.785,86.54,34.648z"/>
<path class="st0" d="M81.959,79.232c-2.758-3.185-6.191-7.069-7.331-8.445c-0.154-0.186-0.357,0.913-0.64,1.486
	c-3.068,6.222-9.096,12.138-16.727,15.877c0.779-1.495,1.736-2.967,3.086-4.335c19.08-24.226,14.98-32.873,14.98-32.873
	C82.986,61.35,83.441,71.561,81.959,79.232z M10.434,59.986c2.293,4.154,4.812,7.349,5.841,8.918
	c-0.794,0.094-12.482,5.024-15.323,5.988c-0.337,0.115,0.142,0.863,1.215,1.965c6.851,0.094,24.025-1.534,33.639-19.764
	C35.806,57.094,31.286,62.695,10.434,59.986z M59.464,15.044c-1.452-0.191-2.901-0.269-4.323-0.268c-0.648,0-1.064-0.69-0.772-1.269
	c1.588-3.151,4.736-9.885,6.008-12.05c0.15-0.255-0.415-0.473-1.486-0.615c-1.68,4.5-3.614,8.401-5.365,10.599
	c-3.015,3.648-6.601,6.782-10.62,9.281c6.935,0.092,13.706-1.691,19.64-5.075C61.51,15.389,60.479,15.177,59.464,15.044z"/>
</svg>
