<?xml version="1.0" encoding="iso-8859-1"?>
<!-- Generator: Adobe Illustrator 22.0.1, SVG Export Plug-In . SVG Version: 6.00 Build 0)  -->
<svg version="1.1" id="Layer_1" xmlns="http://www.w3.org/2000/svg" xmlns:xlink="http://www.w3.org/1999/xlink" x="0px" y="0px"
	 viewBox="0 0 460.947 83.61" style="enable-background:new 0 0 460.947 83.61;" xml:space="preserve">
<path style="fill:#020202;" d="M38.821,67.358H0.053v-3.81l17.776-26.325H2V25.034h36.736v3.808L21.215,55.168h17.606V67.358
	L38.821,67.358z M85.038,51.274H57.95c1.58,3.217,4.741,4.825,9.481,4.825c3.724,0,7.42-1.101,11.088-3.302l5.248,9.904
	c-4.966,3.781-10.582,5.672-16.845,5.672c-6.886,0-12.57-2.116-17.057-6.349c-4.486-4.232-6.728-9.508-6.728-15.829
	c0-6.207,2.186-11.454,6.56-15.744c4.372-4.288,9.72-6.433,16.04-6.433c5.981,0,10.848,1.947,14.601,5.84
	c3.752,3.895,5.629,8.635,5.629,14.222C85.968,46.506,85.658,48.904,85.038,51.274L85.038,51.274z M70.056,37.223
	c-1.355-1.185-2.992-1.778-4.91-1.778c-1.862,0-3.47,0.55-4.824,1.651c-1.355,1.101-2.315,2.667-2.879,4.698h14.728
	C72.115,39.932,71.41,38.408,70.056,37.223L70.056,37.223z M121.012,67.358V43.402c0-1.863-0.579-3.372-1.736-4.528
	c-1.157-1.157-2.638-1.736-4.444-1.736c-1.807,0-3.273,0.579-4.401,1.736c-1.131,1.157-1.693,2.665-1.693,4.528v23.955H94.179
	V25.034h13.288v3.47c3.161-2.99,7.139-4.486,11.936-4.486c4.909,0,8.831,1.566,11.766,4.698c2.934,3.132,4.401,7.321,4.401,12.57
	v26.072H121.012L121.012,67.358z M153.6,77.599V1.333h2.539v76.265H153.6L153.6,77.599z M212.088,78.191
	c-4.007,3.611-9.565,5.418-16.675,5.418c-8.182,0-15.292-2.539-21.331-7.618l7.365-10.242c4.232,3.216,8.379,4.824,12.442,4.824
	c2.879,0,5.206-0.634,6.984-1.904c1.777-1.269,2.665-3.117,2.665-5.544v-1.524c-2.596,2.597-6.293,3.893-11.088,3.893
	c-5.87,0-10.68-1.904-14.432-5.713c-3.754-3.81-5.629-8.846-5.629-15.11c0-6.263,1.889-11.271,5.67-15.024
	c3.781-3.752,8.578-5.629,14.39-5.629c5.643,0,9.762,1.778,12.359,5.332v-4.316h13.29v37.16
	C218.099,69.247,216.095,74.58,212.088,78.191L212.088,78.191z M201.465,38.196c-1.552-1.439-3.513-2.159-5.882-2.159
	c-2.427,0-4.416,0.749-5.967,2.244c-1.554,1.496-2.329,3.57-2.329,6.222c0,2.653,0.805,4.812,2.413,6.475
	c1.607,1.665,3.568,2.497,5.882,2.497c2.313,0,4.26-0.817,5.84-2.455c1.58-1.636,2.371-3.837,2.371-6.602
	C203.794,41.709,203.018,39.635,201.465,38.196L201.465,38.196z M253.058,37.901c-3.387,0-5.912,0.819-7.576,2.454
	c-1.666,1.637-2.497,4.204-2.497,7.703v19.299h-14.56V25.034h13.29v4.486c2.709-3.442,6.264-5.164,10.665-5.164
	c1.41,0,2.794,0.227,4.148,0.678v12.867H253.058L253.058,37.901z M299.995,61.897c-4.601,4.431-10.06,6.589-16.379,6.476
	c-6.32,0.112-11.766-2.045-16.337-6.476c-4.571-4.429-6.801-9.662-6.687-15.702c-0.114-6.037,2.116-11.271,6.687-15.702
	c4.571-4.429,10.017-6.587,16.337-6.475c6.319-0.112,11.779,2.047,16.379,6.475c4.598,4.431,6.841,9.665,6.728,15.702
	C306.836,52.235,304.593,57.468,299.995,61.897L299.995,61.897z M289.498,39.89c-1.552-1.665-3.485-2.497-5.798-2.497
	c-2.427,0-4.402,0.819-5.926,2.454c-1.524,1.637-2.285,3.754-2.285,6.348c0,2.653,0.761,4.783,2.285,6.392
	c1.524,1.609,3.499,2.412,5.926,2.412c2.37,0,4.316-0.832,5.84-2.497c1.524-1.663,2.286-3.767,2.286-6.307
	C291.827,43.656,291.05,41.554,289.498,39.89L289.498,39.89z M350.189,62.617c-3.866,3.838-8.817,5.756-14.855,5.756
	c-6.04,0-11.005-1.918-14.898-5.756c-3.893-3.837-5.841-8.831-5.841-14.982V25.034h14.56v23.785c0,1.807,0.578,3.288,1.735,4.444
	c1.157,1.158,2.638,1.736,4.445,1.736c1.748,0,3.202-0.578,4.359-1.736c1.156-1.155,1.736-2.637,1.736-4.444V25.034h14.559v22.601
	C355.988,53.786,354.054,58.78,350.189,62.617L350.189,62.617z M392.808,67.358V43.402c0-1.863-0.58-3.372-1.736-4.528
	c-1.157-1.157-2.638-1.736-4.444-1.736c-1.807,0-3.273,0.579-4.402,1.736c-1.129,1.157-1.692,2.665-1.692,4.528v23.955h-14.56
	V25.034h13.29v3.47c3.16-2.99,7.139-4.486,11.936-4.486c4.909,0,8.831,1.566,11.766,4.698c2.933,3.132,4.401,7.321,4.401,12.57
	v26.072H392.808L392.808,67.358z M447.658,67.358v-4.402c-2.597,3.613-6.632,5.418-12.105,5.418c-5.925,0-10.792-2.074-14.601-6.222
	c-3.809-4.148-5.714-9.439-5.714-15.871c0-6.433,1.918-11.751,5.756-15.955c3.837-4.204,8.69-6.307,14.559-6.307
	c4.457,0,8.07,1.299,10.835,3.893V3.873h14.559v63.485H447.658L447.658,67.358z M444.271,39.678c-1.58-1.636-3.526-2.455-5.84-2.455
	c-2.315,0-4.275,0.804-5.884,2.412c-1.609,1.608-2.412,3.796-2.412,6.56c0,2.767,0.775,4.953,2.327,6.56
	c1.552,1.609,3.541,2.413,5.969,2.413c2.37,0,4.33-0.79,5.882-2.371c1.551-1.579,2.329-3.752,2.329-6.517
	C446.642,43.516,445.851,41.315,444.271,39.678L444.271,39.678z"/>
</svg>
